{"title":"Dracula Untold (2014) WEBDL DVDRip XviD-MAX","uid":11629447,"size":1475484399,"categoryP":"video","categoryS":"movies","magnet":"?xt=urn:btih:6569fa61f24a064ab463265157240b8899d9a04d&amp;dn=Dracula+Untold+%282014%29+WEBDL+DVDRip+XviD-MAX&amp;tr=udp%3A%2F%2Ftracker.openbittorrent.com%3A80&amp;tr=udp%3A%2F%2Fopen.demonii.com%3A1337&amp;tr=udp%3A%2F%2Ftracker.coppersurfer.tk%3A6969&amp;tr=udp%3A%2F%2Fexodus.desync.com%3A6969","seeders":32,"leechers":6,"uploader":"extremezone","files":-1,"time":1417663269,"description":" &lt;a href=&quot;http://i.imgur.com/ESbjJ5C.jpg&quot; rel=&quot;nofollow&quot; target=&quot;_NEW&quot;&gt;http://i.imgur.com/ESbjJ5C.jpg&lt;/a&gt;\n\nScreencaps:\n &lt;a href=&quot;\nhttp://i.imgur.com/dSjfyZ0.jpg&quot; rel=&quot;nofollow&quot; target=&quot;_NEW&quot;&gt;\nhttp://i.imgur.com/dSjfyZ0.jpg&lt;/a&gt;\n\nDracula Untold (2014) WEBDL DVDRip XviD-MAX\nFormat                                   : AVI\nFormat/Info                              : Audio Video Interleave\nFormat profile                           : OpenDML\nFormat settings                          : rec\nFile size                                : 1.36 GiB\nDuration                                 : 1h 32mn\nOverall bit rate                         : 2 120 Kbps\nWriting application                      : VirtualDubMod 1.5.10.2 (build 2542/release)\nWriting library                          : VirtualDubMod build 2542/release\nOriginal source form                     : MAX TORRENTZ\nCopyright                                : SIGISMUNT\n\nVideo\nID                                       : 0\nFormat                                   : MPEG-4 Visual\nFormat profile                           : Advanced Simple@L5\nFormat settings, BVOP                    : 4\nFormat settings, QPel                    : No\nFormat settings, GMC                     : No warppoints\nFormat settings, Matrix                  : Default (MPEG)\nCodec ID                                 : XVID\nCodec ID/Hint                            : XviD\nDuration                                 : 1h 32mn\nBit rate                                 : 1 730 Kbps\nWidth                                    : 720 pixels\nHeight                                   : 304 pixels\nDisplay aspect ratio                     : 2.35:1\nFrame rate                               : 23.976 fps\nColor space                              : YUV\nChroma subsampling                       : 4:2:0\nBit depth                                : 8 bits\nScan type                                : Progressive\nCompression mode                         : Lossy\nBits/(Pixel*Frame)                       : 0.330\nStream size                              : 1.11 GiB (82%)\nWriting library                          : XviD 1.2.1 (UTC 2008-12-04)\n\nAudio\nID                                       : 1\nFormat                                   : AC-3\nFormat/Info                              : Audio Coding 3\nMode extension                           : CM (complete main)\nFormat settings, Endianness              : Big\nCodec ID                                 : 2000\nDuration                                 : 1h 32mn\nBit rate mode                            : Constant\nBit rate                                 : 384 Kbps\nChannel(s)                               : 6 channels\nChannel positions                        : Front: L C R, Side: L R, LFE\nSampling rate                            : 44.1 KHz\nBit depth                                : 16 bits\nCompression mode                         : Lossy\nStream size                              : 253 MiB (18%)\nAlignment                                : Aligned on interleaves\nInterleave, duration                     : 70 ms (1.67 video frames)\nInterleave, preload duration             : 208 ms\n\nSource: WEBDLDVD (perfect a/v/sync quality,sample included)\nThis torrent is not seedbox supported,please seed it to the MAX\n\nUploader Note: If you think image it's a little dark then VLC-&gt;Ctrl+E-&gt;Video Effects-&gt;\n-&gt;Image adjust-&gt;Brightness-&gt;Close, simple as 1,2,3 so no complaints about this please,thanks\n\nNote: If you have something to offer as early releases,seedboxes,\ncontact us on &lt;a href=&quot; http://torentz.3xforum.ro&quot; rel=&quot;nofollow&quot; target=&quot;_NEW&quot;&gt; http://torentz.3xforum.ro&lt;/a&gt; or \n\nDracula Untold (2014) WEBDL DVDRip XviD-MAX Torrent Free Download\n\nHow To Get Your MAXSPEED (uTorrent)\n\nTorrent Client - Preferences - Bandwidth - Number of connections - Set aprox. 500 for each\nTorrent Client - Preferences - BiTorrent - Protocol Encryption - Forced\nBandwidth Allocation - High (Set download/upload limit - Unlimited)\nStop Other Active Torrents - Start downloading and wait for connections.\nEnjoy and Seed for at least 1:1 ratio. Don't forget to say thanks/leave reviews.\nIf screens/Caps image host is dead googlesearch &quot;release name&quot;+&quot;screens&quot; or &quot;sample&quot;.\nGreets to all actual/future p2p/scene QUALITY groups and affiliate websites.\nDon't trust IMDb robot or bad ratings,always watch some trailers first.\nIgnore stupid comments/fake/mislabeled/no-DVDrips/CAM/TS/RAR uploads.\nPlease spread this release/torrent to your friends/forums/etc.\nIf you need translation subs visit some subtitles sites.\nReport if you see online streaming or other spam links.\nRecommended movie player VLC PLAYER","torrent":{"xt":"urn:btih:6569fa61f24a064ab463265157240b8899d9a04d","amp;dn":"Dracula+Untold+%282014%29+WEBDL+DVDRip+XviD-MAX","amp;tr":["udp%3A%2F%2Ftracker.openbittorrent.com%3A80","udp%3A%2F%2Fopen.demonii.com%3A1337","udp%3A%2F%2Ftracker.coppersurfer.tk%3A6969","udp%3A%2F%2Fexodus.desync.com%3A6969"],"infoHash":"6569fa61f24a064ab463265157240b8899d9a04d","infoHashBuffer":{"type":"Buffer","data":[101,105,250,97,242,74,6,74,180,99,38,81,87,36,11,136,153,217,160,77]},"announce":[],"urlList":[]}}